<mxfile host="app.diagrams.net" modified="2021-10-26T08:54:31.087Z" agent="5.0 (Windows NT 10.0; Win64; x64) AppleWebKit/537.36 (KHTML, like Gecko) Chrome/94.0.4606.81 Safari/537.36" etag="oM9krT04DWtzvXLBWH2I" version="15.5.9" type="github" pages="2">
  <diagram id="Qz2jnDSqbCO0wh81Tfh0" name="페이지-1">
    <mxGraphModel dx="1422" dy="794" grid="1" gridSize="10" guides="1" tooltips="1" connect="1" arrows="1" fold="1" page="1" pageScale="1" pageWidth="4681" pageHeight="3300" math="0" shadow="0">
      <root>
        <mxCell id="0" />
        <mxCell id="1" parent="0" />
        <mxCell id="U6f2KQfMnRt7XZP1r48C-14" value="" style="rounded=0;whiteSpace=wrap;html=1;fillColor=#e1d5e7;opacity=70;strokeColor=#9673a6;" parent="1" vertex="1">
          <mxGeometry x="1591" y="1580" width="750" height="480" as="geometry" />
        </mxCell>
        <mxCell id="EFu2T0pJuFqWACdUadC3-56" value="" style="rounded=0;whiteSpace=wrap;html=1;fillColor=#e1d5e7;opacity=70;strokeColor=#9673a6;" parent="1" vertex="1">
          <mxGeometry x="390" y="1380" width="770" height="360" as="geometry" />
        </mxCell>
        <mxCell id="EFu2T0pJuFqWACdUadC3-102" value="" style="endArrow=classic;html=1;rounded=0;edgeStyle=orthogonalEdgeStyle;entryX=1;entryY=0.5;entryDx=0;entryDy=0;startArrow=none;" parent="1" target="EFu2T0pJuFqWACdUadC3-50" edge="1">
          <mxGeometry width="50" height="50" relative="1" as="geometry">
            <mxPoint x="1010" y="1560" as="sourcePoint" />
            <mxPoint x="910" y="1630" as="targetPoint" />
            <Array as="points">
              <mxPoint x="1010" y="1560" />
            </Array>
          </mxGeometry>
        </mxCell>
        <mxCell id="EFu2T0pJuFqWACdUadC3-95" value="" style="rounded=0;whiteSpace=wrap;html=1;fillColor=#d5e8d4;opacity=70;strokeColor=#82b366;" parent="1" vertex="1">
          <mxGeometry x="830" y="750" width="1160" height="190" as="geometry" />
        </mxCell>
        <mxCell id="EFu2T0pJuFqWACdUadC3-58" value="" style="rounded=0;whiteSpace=wrap;html=1;fillColor=#e1d5e7;opacity=70;strokeColor=#9673a6;" parent="1" vertex="1">
          <mxGeometry x="390" y="1840" width="1000" height="700" as="geometry" />
        </mxCell>
        <mxCell id="EFu2T0pJuFqWACdUadC3-57" value="" style="rounded=0;whiteSpace=wrap;html=1;fillColor=#e1d5e7;opacity=70;strokeColor=#9673a6;" parent="1" vertex="1">
          <mxGeometry x="390" y="1000" width="1630" height="380" as="geometry" />
        </mxCell>
        <mxCell id="rVRHQzr7WuVmJmkBRJsp-1" value="고객" style="shape=umlActor;verticalLabelPosition=bottom;verticalAlign=top;html=1;outlineConnect=0;" parent="1" vertex="1">
          <mxGeometry x="2140" y="900" width="30" height="60" as="geometry" />
        </mxCell>
        <mxCell id="rVRHQzr7WuVmJmkBRJsp-4" value="" style="group" parent="1" vertex="1" connectable="0">
          <mxGeometry x="2120" y="850" width="70" height="40" as="geometry" />
        </mxCell>
        <mxCell id="rVRHQzr7WuVmJmkBRJsp-2" value="&lt;b&gt;jsp 표시&lt;br&gt;&lt;/b&gt;" style="rounded=1;whiteSpace=wrap;html=1;fillColor=#dae8fc;strokeColor=#6c8ebf;" parent="rVRHQzr7WuVmJmkBRJsp-4" vertex="1">
          <mxGeometry width="70" height="20" as="geometry" />
        </mxCell>
        <mxCell id="rVRHQzr7WuVmJmkBRJsp-3" value="&lt;b&gt;servlet 표시&lt;br&gt;&lt;/b&gt;" style="rounded=1;whiteSpace=wrap;html=1;fillColor=#f8cecc;strokeColor=#b85450;" parent="rVRHQzr7WuVmJmkBRJsp-4" vertex="1">
          <mxGeometry y="20" width="70" height="20" as="geometry" />
        </mxCell>
        <mxCell id="rVRHQzr7WuVmJmkBRJsp-11" value="" style="group" parent="1" vertex="1" connectable="0">
          <mxGeometry x="2080" y="1070" width="150" height="140" as="geometry" />
        </mxCell>
        <mxCell id="rVRHQzr7WuVmJmkBRJsp-7" value="메인 페이지&lt;br&gt;&lt;b&gt;index.jsp&lt;/b&gt;" style="rounded=1;whiteSpace=wrap;html=1;fillColor=#dae8fc;strokeColor=#6c8ebf;" parent="rVRHQzr7WuVmJmkBRJsp-11" vertex="1">
          <mxGeometry width="150" height="140" as="geometry" />
        </mxCell>
        <mxCell id="rVRHQzr7WuVmJmkBRJsp-8" value="&lt;b&gt;header.jsp&lt;/b&gt;" style="rounded=1;whiteSpace=wrap;html=1;fillColor=#ffe6cc;strokeColor=#d79b00;" parent="rVRHQzr7WuVmJmkBRJsp-11" vertex="1">
          <mxGeometry width="150" height="38.18181818181818" as="geometry" />
        </mxCell>
        <mxCell id="rVRHQzr7WuVmJmkBRJsp-9" value="&lt;b&gt;footer.jsp&lt;/b&gt;" style="rounded=1;whiteSpace=wrap;html=1;fillColor=#d5e8d4;strokeColor=#82b366;" parent="rVRHQzr7WuVmJmkBRJsp-11" vertex="1">
          <mxGeometry y="101.81818181818176" width="150" height="38.18181818181818" as="geometry" />
        </mxCell>
        <mxCell id="rVRHQzr7WuVmJmkBRJsp-12" value="" style="group" parent="1" vertex="1" connectable="0">
          <mxGeometry x="1860" y="1140" width="150" height="140" as="geometry" />
        </mxCell>
        <mxCell id="rVRHQzr7WuVmJmkBRJsp-13" value="상품 큰카테고리&lt;br&gt;&lt;b&gt;.jsp&lt;/b&gt;" style="rounded=1;whiteSpace=wrap;html=1;fillColor=#dae8fc;strokeColor=#6c8ebf;" parent="rVRHQzr7WuVmJmkBRJsp-12" vertex="1">
          <mxGeometry width="150" height="140" as="geometry" />
        </mxCell>
        <mxCell id="rVRHQzr7WuVmJmkBRJsp-14" value="&lt;b&gt;header.jsp&lt;/b&gt;" style="rounded=1;whiteSpace=wrap;html=1;fillColor=#ffe6cc;strokeColor=#d79b00;" parent="rVRHQzr7WuVmJmkBRJsp-12" vertex="1">
          <mxGeometry width="150" height="38.18181818181818" as="geometry" />
        </mxCell>
        <mxCell id="rVRHQzr7WuVmJmkBRJsp-15" value="&lt;b&gt;footer.jsp&lt;/b&gt;" style="rounded=1;whiteSpace=wrap;html=1;fillColor=#d5e8d4;strokeColor=#82b366;" parent="rVRHQzr7WuVmJmkBRJsp-12" vertex="1">
          <mxGeometry y="101.81818181818176" width="150" height="38.18181818181818" as="geometry" />
        </mxCell>
        <mxCell id="rVRHQzr7WuVmJmkBRJsp-18" value="" style="group" parent="1" vertex="1" connectable="0">
          <mxGeometry x="1270" y="1220" width="150" height="140" as="geometry" />
        </mxCell>
        <mxCell id="rVRHQzr7WuVmJmkBRJsp-19" value="상품 목록&lt;br&gt;&lt;b&gt;.jsp&lt;/b&gt;" style="rounded=1;whiteSpace=wrap;html=1;fillColor=#dae8fc;strokeColor=#6c8ebf;" parent="rVRHQzr7WuVmJmkBRJsp-18" vertex="1">
          <mxGeometry width="150" height="140" as="geometry" />
        </mxCell>
        <mxCell id="rVRHQzr7WuVmJmkBRJsp-20" value="&lt;b&gt;header.jsp&lt;/b&gt;" style="rounded=1;whiteSpace=wrap;html=1;fillColor=#ffe6cc;strokeColor=#d79b00;" parent="rVRHQzr7WuVmJmkBRJsp-18" vertex="1">
          <mxGeometry width="150" height="38.18181818181818" as="geometry" />
        </mxCell>
        <mxCell id="rVRHQzr7WuVmJmkBRJsp-21" value="&lt;b&gt;footer.jsp&lt;/b&gt;" style="rounded=1;whiteSpace=wrap;html=1;fillColor=#d5e8d4;strokeColor=#82b366;" parent="rVRHQzr7WuVmJmkBRJsp-18" vertex="1">
          <mxGeometry y="101.81818181818176" width="150" height="38.18181818181818" as="geometry" />
        </mxCell>
        <mxCell id="rVRHQzr7WuVmJmkBRJsp-23" value="" style="group" parent="1" vertex="1" connectable="0">
          <mxGeometry x="1820" y="780" width="150" height="140" as="geometry" />
        </mxCell>
        <mxCell id="rVRHQzr7WuVmJmkBRJsp-24" value="상품 인기순&lt;br&gt;&lt;b&gt;/product/list/popular?.jsp&lt;/b&gt;" style="rounded=1;whiteSpace=wrap;html=1;fillColor=#dae8fc;strokeColor=#6c8ebf;" parent="rVRHQzr7WuVmJmkBRJsp-23" vertex="1">
          <mxGeometry width="150" height="140" as="geometry" />
        </mxCell>
        <mxCell id="rVRHQzr7WuVmJmkBRJsp-25" value="&lt;b&gt;header.jsp&lt;/b&gt;" style="rounded=1;whiteSpace=wrap;html=1;fillColor=#ffe6cc;strokeColor=#d79b00;" parent="rVRHQzr7WuVmJmkBRJsp-23" vertex="1">
          <mxGeometry width="150" height="38.18181818181818" as="geometry" />
        </mxCell>
        <mxCell id="rVRHQzr7WuVmJmkBRJsp-26" value="&lt;b&gt;footer.jsp&lt;/b&gt;" style="rounded=1;whiteSpace=wrap;html=1;fillColor=#d5e8d4;strokeColor=#82b366;" parent="rVRHQzr7WuVmJmkBRJsp-23" vertex="1">
          <mxGeometry y="101.81818181818176" width="150" height="38.18181818181818" as="geometry" />
        </mxCell>
        <mxCell id="EFu2T0pJuFqWACdUadC3-80" style="edgeStyle=orthogonalEdgeStyle;rounded=0;orthogonalLoop=1;jettySize=auto;html=1;entryX=0.5;entryY=1;entryDx=0;entryDy=0;" parent="1" source="rVRHQzr7WuVmJmkBRJsp-28" target="EFu2T0pJuFqWACdUadC3-66" edge="1">
          <mxGeometry relative="1" as="geometry">
            <Array as="points">
              <mxPoint x="1055" y="2320" />
            </Array>
          </mxGeometry>
        </mxCell>
        <mxCell id="rVRHQzr7WuVmJmkBRJsp-28" value="&lt;span&gt;상품 삭제&lt;/span&gt;&lt;br&gt;&lt;b&gt;/admin/product/delete.kh&lt;/b&gt;" style="rounded=1;whiteSpace=wrap;html=1;fillColor=#f8cecc;strokeColor=#b85450;" parent="1" vertex="1">
          <mxGeometry x="860" y="2290" width="155" height="60" as="geometry" />
        </mxCell>
        <mxCell id="rVRHQzr7WuVmJmkBRJsp-29" value="" style="group" parent="1" vertex="1" connectable="0">
          <mxGeometry x="520" y="1935" width="150" height="140" as="geometry" />
        </mxCell>
        <mxCell id="rVRHQzr7WuVmJmkBRJsp-30" value="상품 등록&lt;br&gt;&lt;b&gt;/admin/product/add.jsp&lt;/b&gt;" style="rounded=1;whiteSpace=wrap;html=1;fillColor=#dae8fc;strokeColor=#6c8ebf;" parent="rVRHQzr7WuVmJmkBRJsp-29" vertex="1">
          <mxGeometry width="150" height="140" as="geometry" />
        </mxCell>
        <mxCell id="rVRHQzr7WuVmJmkBRJsp-31" value="&lt;b&gt;header.jsp&lt;/b&gt;" style="rounded=1;whiteSpace=wrap;html=1;fillColor=#ffe6cc;strokeColor=#d79b00;" parent="rVRHQzr7WuVmJmkBRJsp-29" vertex="1">
          <mxGeometry width="150" height="38.18181818181818" as="geometry" />
        </mxCell>
        <mxCell id="rVRHQzr7WuVmJmkBRJsp-32" value="&lt;b&gt;footer.jsp&lt;/b&gt;" style="rounded=1;whiteSpace=wrap;html=1;fillColor=#d5e8d4;strokeColor=#82b366;" parent="rVRHQzr7WuVmJmkBRJsp-29" vertex="1">
          <mxGeometry y="101.81818181818176" width="150" height="38.18181818181818" as="geometry" />
        </mxCell>
        <mxCell id="rVRHQzr7WuVmJmkBRJsp-33" value="" style="group" parent="1" vertex="1" connectable="0">
          <mxGeometry x="520" y="2185" width="150" height="140" as="geometry" />
        </mxCell>
        <mxCell id="rVRHQzr7WuVmJmkBRJsp-34" value="상품 정보 변경&lt;br&gt;&lt;b&gt;/admin/product/edit.jsp&lt;/b&gt;" style="rounded=1;whiteSpace=wrap;html=1;fillColor=#dae8fc;strokeColor=#6c8ebf;" parent="rVRHQzr7WuVmJmkBRJsp-33" vertex="1">
          <mxGeometry width="150" height="140" as="geometry" />
        </mxCell>
        <mxCell id="rVRHQzr7WuVmJmkBRJsp-35" value="&lt;b&gt;header.jsp&lt;/b&gt;" style="rounded=1;whiteSpace=wrap;html=1;fillColor=#ffe6cc;strokeColor=#d79b00;" parent="rVRHQzr7WuVmJmkBRJsp-33" vertex="1">
          <mxGeometry width="150" height="38.18181818181818" as="geometry" />
        </mxCell>
        <mxCell id="rVRHQzr7WuVmJmkBRJsp-36" value="&lt;b&gt;footer.jsp&lt;/b&gt;" style="rounded=1;whiteSpace=wrap;html=1;fillColor=#d5e8d4;strokeColor=#82b366;" parent="rVRHQzr7WuVmJmkBRJsp-33" vertex="1">
          <mxGeometry y="101.81818181818176" width="150" height="38.18181818181818" as="geometry" />
        </mxCell>
        <mxCell id="rVRHQzr7WuVmJmkBRJsp-39" value="" style="group" parent="1" vertex="1" connectable="0">
          <mxGeometry x="1610" y="1140" width="150" height="140" as="geometry" />
        </mxCell>
        <mxCell id="rVRHQzr7WuVmJmkBRJsp-40" value="작은 카테고리 선택?&lt;br&gt;&lt;b&gt;product/detail.jsp&lt;/b&gt;" style="rounded=1;whiteSpace=wrap;html=1;fillColor=#dae8fc;strokeColor=#6c8ebf;" parent="rVRHQzr7WuVmJmkBRJsp-39" vertex="1">
          <mxGeometry width="150" height="140" as="geometry" />
        </mxCell>
        <mxCell id="rVRHQzr7WuVmJmkBRJsp-41" value="&lt;b&gt;header.jsp&lt;/b&gt;" style="rounded=1;whiteSpace=wrap;html=1;fillColor=#ffe6cc;strokeColor=#d79b00;" parent="rVRHQzr7WuVmJmkBRJsp-39" vertex="1">
          <mxGeometry width="150" height="38.18181818181818" as="geometry" />
        </mxCell>
        <mxCell id="rVRHQzr7WuVmJmkBRJsp-42" value="&lt;b&gt;footer.jsp&lt;/b&gt;" style="rounded=1;whiteSpace=wrap;html=1;fillColor=#d5e8d4;strokeColor=#82b366;" parent="rVRHQzr7WuVmJmkBRJsp-39" vertex="1">
          <mxGeometry y="101.81818181818176" width="150" height="38.18181818181818" as="geometry" />
        </mxCell>
        <mxCell id="rVRHQzr7WuVmJmkBRJsp-43" value="" style="group" parent="1" vertex="1" connectable="0">
          <mxGeometry x="980" y="1130" width="150" height="140" as="geometry" />
        </mxCell>
        <mxCell id="rVRHQzr7WuVmJmkBRJsp-44" value="상품 상세정보&lt;br&gt;&lt;b&gt;product/detail.jsp&lt;/b&gt;" style="rounded=1;whiteSpace=wrap;html=1;fillColor=#dae8fc;strokeColor=#6c8ebf;" parent="rVRHQzr7WuVmJmkBRJsp-43" vertex="1">
          <mxGeometry width="150" height="140" as="geometry" />
        </mxCell>
        <mxCell id="rVRHQzr7WuVmJmkBRJsp-45" value="&lt;b&gt;header.jsp&lt;/b&gt;" style="rounded=1;whiteSpace=wrap;html=1;fillColor=#ffe6cc;strokeColor=#d79b00;" parent="rVRHQzr7WuVmJmkBRJsp-43" vertex="1">
          <mxGeometry width="150" height="38.18181818181818" as="geometry" />
        </mxCell>
        <mxCell id="rVRHQzr7WuVmJmkBRJsp-46" value="&lt;b&gt;footer.jsp&lt;/b&gt;" style="rounded=1;whiteSpace=wrap;html=1;fillColor=#d5e8d4;strokeColor=#82b366;" parent="rVRHQzr7WuVmJmkBRJsp-43" vertex="1">
          <mxGeometry y="101.81818181818176" width="150" height="38.18181818181818" as="geometry" />
        </mxCell>
        <mxCell id="rVRHQzr7WuVmJmkBRJsp-47" value="" style="group" parent="1" vertex="1" connectable="0">
          <mxGeometry x="1660" y="780" width="150" height="140" as="geometry" />
        </mxCell>
        <mxCell id="rVRHQzr7WuVmJmkBRJsp-48" value="상품 상품명순..?&lt;br&gt;&lt;b&gt;/product/list/?.jsp&lt;/b&gt;" style="rounded=1;whiteSpace=wrap;html=1;fillColor=#dae8fc;strokeColor=#6c8ebf;" parent="rVRHQzr7WuVmJmkBRJsp-47" vertex="1">
          <mxGeometry width="150" height="140" as="geometry" />
        </mxCell>
        <mxCell id="rVRHQzr7WuVmJmkBRJsp-49" value="&lt;b&gt;header.jsp&lt;/b&gt;" style="rounded=1;whiteSpace=wrap;html=1;fillColor=#ffe6cc;strokeColor=#d79b00;" parent="rVRHQzr7WuVmJmkBRJsp-47" vertex="1">
          <mxGeometry width="150" height="38.18181818181818" as="geometry" />
        </mxCell>
        <mxCell id="rVRHQzr7WuVmJmkBRJsp-50" value="&lt;b&gt;footer.jsp&lt;/b&gt;" style="rounded=1;whiteSpace=wrap;html=1;fillColor=#d5e8d4;strokeColor=#82b366;" parent="rVRHQzr7WuVmJmkBRJsp-47" vertex="1">
          <mxGeometry y="101.81818181818176" width="150" height="38.18181818181818" as="geometry" />
        </mxCell>
        <mxCell id="rVRHQzr7WuVmJmkBRJsp-53" style="edgeStyle=orthogonalEdgeStyle;rounded=0;orthogonalLoop=1;jettySize=auto;html=1;entryX=1;entryY=0.5;entryDx=0;entryDy=0;" parent="1" source="rVRHQzr7WuVmJmkBRJsp-13" target="rVRHQzr7WuVmJmkBRJsp-40" edge="1">
          <mxGeometry relative="1" as="geometry" />
        </mxCell>
        <mxCell id="rVRHQzr7WuVmJmkBRJsp-56" value="" style="group" parent="1" vertex="1" connectable="0">
          <mxGeometry x="1270" y="1020" width="150" height="140" as="geometry" />
        </mxCell>
        <mxCell id="rVRHQzr7WuVmJmkBRJsp-57" value="상품 검색&lt;br&gt;&lt;b&gt;.jsp&lt;/b&gt;" style="rounded=1;whiteSpace=wrap;html=1;fillColor=#dae8fc;strokeColor=#6c8ebf;" parent="rVRHQzr7WuVmJmkBRJsp-56" vertex="1">
          <mxGeometry width="150" height="140" as="geometry" />
        </mxCell>
        <mxCell id="rVRHQzr7WuVmJmkBRJsp-58" value="&lt;b&gt;header.jsp&lt;/b&gt;" style="rounded=1;whiteSpace=wrap;html=1;fillColor=#ffe6cc;strokeColor=#d79b00;" parent="rVRHQzr7WuVmJmkBRJsp-56" vertex="1">
          <mxGeometry width="150" height="38.18181818181818" as="geometry" />
        </mxCell>
        <mxCell id="rVRHQzr7WuVmJmkBRJsp-59" value="&lt;b&gt;footer.jsp&lt;/b&gt;" style="rounded=1;whiteSpace=wrap;html=1;fillColor=#d5e8d4;strokeColor=#82b366;" parent="rVRHQzr7WuVmJmkBRJsp-56" vertex="1">
          <mxGeometry y="101.81818181818176" width="150" height="38.18181818181818" as="geometry" />
        </mxCell>
        <mxCell id="EFu2T0pJuFqWACdUadC3-1" style="edgeStyle=orthogonalEdgeStyle;rounded=0;orthogonalLoop=1;jettySize=auto;html=1;entryX=1;entryY=0.5;entryDx=0;entryDy=0;" parent="1" source="rVRHQzr7WuVmJmkBRJsp-19" target="rVRHQzr7WuVmJmkBRJsp-44" edge="1">
          <mxGeometry relative="1" as="geometry">
            <mxPoint x="1240" y="1200" as="targetPoint" />
          </mxGeometry>
        </mxCell>
        <mxCell id="EFu2T0pJuFqWACdUadC3-8" style="edgeStyle=orthogonalEdgeStyle;rounded=0;orthogonalLoop=1;jettySize=auto;html=1;entryX=1;entryY=0.5;entryDx=0;entryDy=0;" parent="1" source="EFu2T0pJuFqWACdUadC3-2" target="EFu2T0pJuFqWACdUadC3-4" edge="1">
          <mxGeometry relative="1" as="geometry" />
        </mxCell>
        <mxCell id="EFu2T0pJuFqWACdUadC3-2" value="&lt;span&gt;상품 구매&lt;/span&gt;&lt;br&gt;&lt;b&gt;product/buy.kh&lt;/b&gt;" style="rounded=1;whiteSpace=wrap;html=1;fillColor=#f8cecc;strokeColor=#b85450;" parent="1" vertex="1">
          <mxGeometry x="650" y="1170" width="120" height="60" as="geometry" />
        </mxCell>
        <mxCell id="EFu2T0pJuFqWACdUadC3-3" value="" style="group" parent="1" vertex="1" connectable="0">
          <mxGeometry x="400" y="1130" width="150" height="140" as="geometry" />
        </mxCell>
        <mxCell id="EFu2T0pJuFqWACdUadC3-4" value="상품 구매 완료&lt;br&gt;&lt;b&gt;product/buy_success.jsp&lt;/b&gt;" style="rounded=1;whiteSpace=wrap;html=1;fillColor=#dae8fc;strokeColor=#6c8ebf;" parent="EFu2T0pJuFqWACdUadC3-3" vertex="1">
          <mxGeometry width="150" height="140" as="geometry" />
        </mxCell>
        <mxCell id="EFu2T0pJuFqWACdUadC3-5" value="&lt;b&gt;header.jsp&lt;/b&gt;" style="rounded=1;whiteSpace=wrap;html=1;fillColor=#ffe6cc;strokeColor=#d79b00;" parent="EFu2T0pJuFqWACdUadC3-3" vertex="1">
          <mxGeometry width="150" height="38.18181818181818" as="geometry" />
        </mxCell>
        <mxCell id="EFu2T0pJuFqWACdUadC3-6" value="&lt;b&gt;footer.jsp&lt;/b&gt;" style="rounded=1;whiteSpace=wrap;html=1;fillColor=#d5e8d4;strokeColor=#82b366;" parent="EFu2T0pJuFqWACdUadC3-3" vertex="1">
          <mxGeometry y="101.81818181818176" width="150" height="38.18181818181818" as="geometry" />
        </mxCell>
        <mxCell id="EFu2T0pJuFqWACdUadC3-7" style="edgeStyle=orthogonalEdgeStyle;rounded=0;orthogonalLoop=1;jettySize=auto;html=1;" parent="1" source="rVRHQzr7WuVmJmkBRJsp-44" target="EFu2T0pJuFqWACdUadC3-2" edge="1">
          <mxGeometry relative="1" as="geometry" />
        </mxCell>
        <mxCell id="EFu2T0pJuFqWACdUadC3-9" value="" style="group" parent="1" vertex="1" connectable="0">
          <mxGeometry x="1500" y="780" width="150" height="140" as="geometry" />
        </mxCell>
        <mxCell id="EFu2T0pJuFqWACdUadC3-10" value="신상품..?&lt;br&gt;&lt;b&gt;/product/list/?.jsp&lt;/b&gt;" style="rounded=1;whiteSpace=wrap;html=1;fillColor=#dae8fc;strokeColor=#6c8ebf;" parent="EFu2T0pJuFqWACdUadC3-9" vertex="1">
          <mxGeometry width="150" height="140" as="geometry" />
        </mxCell>
        <mxCell id="EFu2T0pJuFqWACdUadC3-11" value="&lt;b&gt;header.jsp&lt;/b&gt;" style="rounded=1;whiteSpace=wrap;html=1;fillColor=#ffe6cc;strokeColor=#d79b00;" parent="EFu2T0pJuFqWACdUadC3-9" vertex="1">
          <mxGeometry width="150" height="38.18181818181818" as="geometry" />
        </mxCell>
        <mxCell id="EFu2T0pJuFqWACdUadC3-12" value="&lt;b&gt;footer.jsp&lt;/b&gt;" style="rounded=1;whiteSpace=wrap;html=1;fillColor=#d5e8d4;strokeColor=#82b366;" parent="EFu2T0pJuFqWACdUadC3-9" vertex="1">
          <mxGeometry y="101.81818181818176" width="150" height="38.18181818181818" as="geometry" />
        </mxCell>
        <mxCell id="EFu2T0pJuFqWACdUadC3-13" value="" style="group" parent="1" vertex="1" connectable="0">
          <mxGeometry x="1340" y="780" width="150" height="140" as="geometry" />
        </mxCell>
        <mxCell id="EFu2T0pJuFqWACdUadC3-14" value="낮은 가격&lt;br&gt;&lt;b&gt;/product/list/?.jsp&lt;/b&gt;" style="rounded=1;whiteSpace=wrap;html=1;fillColor=#dae8fc;strokeColor=#6c8ebf;" parent="EFu2T0pJuFqWACdUadC3-13" vertex="1">
          <mxGeometry width="150" height="140" as="geometry" />
        </mxCell>
        <mxCell id="EFu2T0pJuFqWACdUadC3-15" value="&lt;b&gt;header.jsp&lt;/b&gt;" style="rounded=1;whiteSpace=wrap;html=1;fillColor=#ffe6cc;strokeColor=#d79b00;" parent="EFu2T0pJuFqWACdUadC3-13" vertex="1">
          <mxGeometry width="150" height="38.18181818181818" as="geometry" />
        </mxCell>
        <mxCell id="EFu2T0pJuFqWACdUadC3-16" value="&lt;b&gt;footer.jsp&lt;/b&gt;" style="rounded=1;whiteSpace=wrap;html=1;fillColor=#d5e8d4;strokeColor=#82b366;" parent="EFu2T0pJuFqWACdUadC3-13" vertex="1">
          <mxGeometry y="101.81818181818176" width="150" height="38.18181818181818" as="geometry" />
        </mxCell>
        <mxCell id="EFu2T0pJuFqWACdUadC3-17" value="" style="group" parent="1" vertex="1" connectable="0">
          <mxGeometry x="1180" y="780" width="150" height="140" as="geometry" />
        </mxCell>
        <mxCell id="EFu2T0pJuFqWACdUadC3-18" value="높은 가격&lt;br&gt;&lt;b&gt;/product/list/?.jsp&lt;/b&gt;" style="rounded=1;whiteSpace=wrap;html=1;fillColor=#dae8fc;strokeColor=#6c8ebf;" parent="EFu2T0pJuFqWACdUadC3-17" vertex="1">
          <mxGeometry width="150" height="140" as="geometry" />
        </mxCell>
        <mxCell id="EFu2T0pJuFqWACdUadC3-19" value="&lt;b&gt;header.jsp&lt;/b&gt;" style="rounded=1;whiteSpace=wrap;html=1;fillColor=#ffe6cc;strokeColor=#d79b00;" parent="EFu2T0pJuFqWACdUadC3-17" vertex="1">
          <mxGeometry width="150" height="38.18181818181818" as="geometry" />
        </mxCell>
        <mxCell id="EFu2T0pJuFqWACdUadC3-20" value="&lt;b&gt;footer.jsp&lt;/b&gt;" style="rounded=1;whiteSpace=wrap;html=1;fillColor=#d5e8d4;strokeColor=#82b366;" parent="EFu2T0pJuFqWACdUadC3-17" vertex="1">
          <mxGeometry y="101.81818181818176" width="150" height="38.18181818181818" as="geometry" />
        </mxCell>
        <mxCell id="EFu2T0pJuFqWACdUadC3-21" value="" style="group" parent="1" vertex="1" connectable="0">
          <mxGeometry x="1020" y="780" width="150" height="140" as="geometry" />
        </mxCell>
        <mxCell id="EFu2T0pJuFqWACdUadC3-22" value="후기순&lt;br&gt;&lt;b&gt;/product/list/?.jsp&lt;/b&gt;" style="rounded=1;whiteSpace=wrap;html=1;fillColor=#dae8fc;strokeColor=#6c8ebf;" parent="EFu2T0pJuFqWACdUadC3-21" vertex="1">
          <mxGeometry width="150" height="140" as="geometry" />
        </mxCell>
        <mxCell id="EFu2T0pJuFqWACdUadC3-23" value="&lt;b&gt;header.jsp&lt;/b&gt;" style="rounded=1;whiteSpace=wrap;html=1;fillColor=#ffe6cc;strokeColor=#d79b00;" parent="EFu2T0pJuFqWACdUadC3-21" vertex="1">
          <mxGeometry width="150" height="38.18181818181818" as="geometry" />
        </mxCell>
        <mxCell id="EFu2T0pJuFqWACdUadC3-24" value="&lt;b&gt;footer.jsp&lt;/b&gt;" style="rounded=1;whiteSpace=wrap;html=1;fillColor=#d5e8d4;strokeColor=#82b366;" parent="EFu2T0pJuFqWACdUadC3-21" vertex="1">
          <mxGeometry y="101.81818181818176" width="150" height="38.18181818181818" as="geometry" />
        </mxCell>
        <mxCell id="EFu2T0pJuFqWACdUadC3-25" value="" style="group" parent="1" vertex="1" connectable="0">
          <mxGeometry x="860" y="780" width="150" height="140" as="geometry" />
        </mxCell>
        <mxCell id="EFu2T0pJuFqWACdUadC3-26" value="조회순&lt;br&gt;&lt;b&gt;/product/list/?.jsp&lt;/b&gt;" style="rounded=1;whiteSpace=wrap;html=1;fillColor=#dae8fc;strokeColor=#6c8ebf;" parent="EFu2T0pJuFqWACdUadC3-25" vertex="1">
          <mxGeometry width="150" height="140" as="geometry" />
        </mxCell>
        <mxCell id="EFu2T0pJuFqWACdUadC3-27" value="&lt;b&gt;header.jsp&lt;/b&gt;" style="rounded=1;whiteSpace=wrap;html=1;fillColor=#ffe6cc;strokeColor=#d79b00;" parent="EFu2T0pJuFqWACdUadC3-25" vertex="1">
          <mxGeometry width="150" height="38.18181818181818" as="geometry" />
        </mxCell>
        <mxCell id="EFu2T0pJuFqWACdUadC3-28" value="&lt;b&gt;footer.jsp&lt;/b&gt;" style="rounded=1;whiteSpace=wrap;html=1;fillColor=#d5e8d4;strokeColor=#82b366;" parent="EFu2T0pJuFqWACdUadC3-25" vertex="1">
          <mxGeometry y="101.81818181818176" width="150" height="38.18181818181818" as="geometry" />
        </mxCell>
        <mxCell id="EFu2T0pJuFqWACdUadC3-29" value="상품번호&lt;br&gt;상품명&lt;br&gt;가격&lt;br&gt;적립금&lt;br&gt;설명&lt;br&gt;" style="text;html=1;align=center;verticalAlign=middle;whiteSpace=wrap;rounded=0;fillColor=default;" parent="1" vertex="1">
          <mxGeometry x="690" y="1010" width="80" height="110" as="geometry" />
        </mxCell>
        <mxCell id="EFu2T0pJuFqWACdUadC3-30" value="사이즈번호&lt;br&gt;색상번호&lt;br&gt;이미지번호" style="text;html=1;align=center;verticalAlign=middle;whiteSpace=wrap;rounded=0;fillColor=default;" parent="1" vertex="1">
          <mxGeometry x="780" y="1010" width="80" height="110" as="geometry" />
        </mxCell>
        <mxCell id="EFu2T0pJuFqWACdUadC3-31" value="구매번호&lt;br&gt;아이디&lt;br&gt;상품번호&lt;br&gt;결제방식&lt;br&gt;구매날짜" style="text;html=1;align=center;verticalAlign=middle;whiteSpace=wrap;rounded=0;fillColor=default;" parent="1" vertex="1">
          <mxGeometry x="560" y="1010" width="80" height="110" as="geometry" />
        </mxCell>
        <mxCell id="EFu2T0pJuFqWACdUadC3-42" value="" style="group" parent="1" vertex="1" connectable="0">
          <mxGeometry x="450" y="1400" width="170" height="150" as="geometry" />
        </mxCell>
        <mxCell id="EFu2T0pJuFqWACdUadC3-43" value="결제 취소 성공&lt;br&gt;&lt;b&gt;/product/cancel_success.jsp&lt;/b&gt;" style="rounded=1;whiteSpace=wrap;html=1;fillColor=#dae8fc;strokeColor=#6c8ebf;" parent="EFu2T0pJuFqWACdUadC3-42" vertex="1">
          <mxGeometry width="170" height="150" as="geometry" />
        </mxCell>
        <mxCell id="EFu2T0pJuFqWACdUadC3-44" value="&lt;b&gt;header.jsp&lt;/b&gt;" style="rounded=1;whiteSpace=wrap;html=1;fillColor=#ffe6cc;strokeColor=#d79b00;" parent="EFu2T0pJuFqWACdUadC3-42" vertex="1">
          <mxGeometry width="170" height="40.90909090909091" as="geometry" />
        </mxCell>
        <mxCell id="EFu2T0pJuFqWACdUadC3-45" value="&lt;b&gt;footer.jsp&lt;/b&gt;" style="rounded=1;whiteSpace=wrap;html=1;fillColor=#d5e8d4;strokeColor=#82b366;" parent="EFu2T0pJuFqWACdUadC3-42" vertex="1">
          <mxGeometry y="109.09090909090902" width="170" height="40.90909090909091" as="geometry" />
        </mxCell>
        <mxCell id="EFu2T0pJuFqWACdUadC3-46" value="" style="group" parent="1" vertex="1" connectable="0">
          <mxGeometry x="450" y="1560" width="170" height="150" as="geometry" />
        </mxCell>
        <mxCell id="EFu2T0pJuFqWACdUadC3-47" value="결제 취소 실패&lt;br&gt;&lt;b&gt;/product/cancel_fail.jsp&lt;/b&gt;" style="rounded=1;whiteSpace=wrap;html=1;fillColor=#dae8fc;strokeColor=#6c8ebf;" parent="EFu2T0pJuFqWACdUadC3-46" vertex="1">
          <mxGeometry width="170" height="150" as="geometry" />
        </mxCell>
        <mxCell id="EFu2T0pJuFqWACdUadC3-48" value="&lt;b&gt;header.jsp&lt;/b&gt;" style="rounded=1;whiteSpace=wrap;html=1;fillColor=#ffe6cc;strokeColor=#d79b00;" parent="EFu2T0pJuFqWACdUadC3-46" vertex="1">
          <mxGeometry width="170" height="40.90909090909091" as="geometry" />
        </mxCell>
        <mxCell id="EFu2T0pJuFqWACdUadC3-49" value="&lt;b&gt;footer.jsp&lt;/b&gt;" style="rounded=1;whiteSpace=wrap;html=1;fillColor=#d5e8d4;strokeColor=#82b366;" parent="EFu2T0pJuFqWACdUadC3-46" vertex="1">
          <mxGeometry y="109.09090909090902" width="170" height="40.90909090909091" as="geometry" />
        </mxCell>
        <mxCell id="EFu2T0pJuFqWACdUadC3-51" style="edgeStyle=orthogonalEdgeStyle;rounded=0;orthogonalLoop=1;jettySize=auto;html=1;entryX=1;entryY=0.5;entryDx=0;entryDy=0;" parent="1" source="EFu2T0pJuFqWACdUadC3-50" target="EFu2T0pJuFqWACdUadC3-43" edge="1">
          <mxGeometry relative="1" as="geometry" />
        </mxCell>
        <mxCell id="EFu2T0pJuFqWACdUadC3-52" style="edgeStyle=orthogonalEdgeStyle;rounded=0;orthogonalLoop=1;jettySize=auto;html=1;" parent="1" source="EFu2T0pJuFqWACdUadC3-50" target="EFu2T0pJuFqWACdUadC3-47" edge="1">
          <mxGeometry relative="1" as="geometry" />
        </mxCell>
        <mxCell id="EFu2T0pJuFqWACdUadC3-50" value="결제 취소 처리&lt;br&gt;&lt;b&gt;/product/cancel.kh&lt;/b&gt;" style="rounded=1;whiteSpace=wrap;html=1;fillColor=#f8cecc;strokeColor=#b85450;" parent="1" vertex="1">
          <mxGeometry x="730" y="1530" width="120" height="60" as="geometry" />
        </mxCell>
        <mxCell id="EFu2T0pJuFqWACdUadC3-53" value="세션&lt;br&gt;↓&lt;br&gt;login" style="text;html=1;align=center;verticalAlign=middle;whiteSpace=wrap;rounded=0;fillColor=default;" parent="1" vertex="1">
          <mxGeometry x="860" y="1170" width="30" height="60" as="geometry" />
        </mxCell>
        <mxCell id="EFu2T0pJuFqWACdUadC3-59" value="" style="group" parent="1" vertex="1" connectable="0">
          <mxGeometry x="1220" y="2060" width="150" height="140" as="geometry" />
        </mxCell>
        <mxCell id="EFu2T0pJuFqWACdUadC3-60" value="관리자 메인페이지&lt;br&gt;&lt;b&gt;admin/home.jsp&lt;/b&gt;" style="rounded=1;whiteSpace=wrap;html=1;fillColor=#dae8fc;strokeColor=#6c8ebf;" parent="EFu2T0pJuFqWACdUadC3-59" vertex="1">
          <mxGeometry width="150" height="140" as="geometry" />
        </mxCell>
        <mxCell id="EFu2T0pJuFqWACdUadC3-61" value="&lt;b&gt;header.jsp&lt;/b&gt;" style="rounded=1;whiteSpace=wrap;html=1;fillColor=#ffe6cc;strokeColor=#d79b00;" parent="EFu2T0pJuFqWACdUadC3-59" vertex="1">
          <mxGeometry width="150" height="38.18181818181818" as="geometry" />
        </mxCell>
        <mxCell id="EFu2T0pJuFqWACdUadC3-62" value="&lt;b&gt;footer.jsp&lt;/b&gt;" style="rounded=1;whiteSpace=wrap;html=1;fillColor=#d5e8d4;strokeColor=#82b366;" parent="EFu2T0pJuFqWACdUadC3-59" vertex="1">
          <mxGeometry y="101.81818181818176" width="150" height="38.18181818181818" as="geometry" />
        </mxCell>
        <mxCell id="EFu2T0pJuFqWACdUadC3-63" value="" style="group" parent="1" vertex="1" connectable="0">
          <mxGeometry x="980" y="2060" width="150" height="140" as="geometry" />
        </mxCell>
        <mxCell id="EFu2T0pJuFqWACdUadC3-64" value="상품 목록&lt;br&gt;&lt;b&gt;/admin/product/list.jsp&lt;/b&gt;" style="rounded=1;whiteSpace=wrap;html=1;fillColor=#dae8fc;strokeColor=#6c8ebf;" parent="EFu2T0pJuFqWACdUadC3-63" vertex="1">
          <mxGeometry width="150" height="140" as="geometry" />
        </mxCell>
        <mxCell id="EFu2T0pJuFqWACdUadC3-65" value="&lt;b&gt;header.jsp&lt;/b&gt;" style="rounded=1;whiteSpace=wrap;html=1;fillColor=#ffe6cc;strokeColor=#d79b00;" parent="EFu2T0pJuFqWACdUadC3-63" vertex="1">
          <mxGeometry width="150" height="38.18181818181818" as="geometry" />
        </mxCell>
        <mxCell id="EFu2T0pJuFqWACdUadC3-66" value="&lt;b&gt;footer.jsp&lt;/b&gt;" style="rounded=1;whiteSpace=wrap;html=1;fillColor=#d5e8d4;strokeColor=#82b366;" parent="EFu2T0pJuFqWACdUadC3-63" vertex="1">
          <mxGeometry y="101.81818181818176" width="150" height="38.18181818181818" as="geometry" />
        </mxCell>
        <mxCell id="EFu2T0pJuFqWACdUadC3-67" style="edgeStyle=orthogonalEdgeStyle;rounded=0;orthogonalLoop=1;jettySize=auto;html=1;entryX=1;entryY=0.5;entryDx=0;entryDy=0;" parent="1" source="EFu2T0pJuFqWACdUadC3-60" target="EFu2T0pJuFqWACdUadC3-64" edge="1">
          <mxGeometry relative="1" as="geometry" />
        </mxCell>
        <mxCell id="EFu2T0pJuFqWACdUadC3-70" style="edgeStyle=orthogonalEdgeStyle;rounded=0;orthogonalLoop=1;jettySize=auto;html=1;entryX=1;entryY=0.5;entryDx=0;entryDy=0;" parent="1" source="EFu2T0pJuFqWACdUadC3-64" target="rVRHQzr7WuVmJmkBRJsp-30" edge="1">
          <mxGeometry relative="1" as="geometry" />
        </mxCell>
        <mxCell id="EFu2T0pJuFqWACdUadC3-71" style="edgeStyle=orthogonalEdgeStyle;rounded=0;orthogonalLoop=1;jettySize=auto;html=1;entryX=1;entryY=0.5;entryDx=0;entryDy=0;" parent="1" source="EFu2T0pJuFqWACdUadC3-64" target="rVRHQzr7WuVmJmkBRJsp-34" edge="1">
          <mxGeometry relative="1" as="geometry" />
        </mxCell>
        <mxCell id="EFu2T0pJuFqWACdUadC3-79" style="edgeStyle=orthogonalEdgeStyle;rounded=0;orthogonalLoop=1;jettySize=auto;html=1;entryX=0.5;entryY=1;entryDx=0;entryDy=0;" parent="1" source="EFu2T0pJuFqWACdUadC3-72" target="EFu2T0pJuFqWACdUadC3-66" edge="1">
          <mxGeometry relative="1" as="geometry" />
        </mxCell>
        <mxCell id="EFu2T0pJuFqWACdUadC3-72" value="&lt;span&gt;상품 정보 변경처리&lt;/span&gt;&lt;br&gt;&lt;b&gt;/admin/product/edit.kh&lt;/b&gt;" style="rounded=1;whiteSpace=wrap;html=1;fillColor=#f8cecc;strokeColor=#b85450;" parent="1" vertex="1">
          <mxGeometry x="517.5" y="2470" width="155" height="60" as="geometry" />
        </mxCell>
        <mxCell id="EFu2T0pJuFqWACdUadC3-74" style="edgeStyle=orthogonalEdgeStyle;rounded=0;orthogonalLoop=1;jettySize=auto;html=1;entryX=0.5;entryY=0;entryDx=0;entryDy=0;" parent="1" source="rVRHQzr7WuVmJmkBRJsp-34" target="EFu2T0pJuFqWACdUadC3-72" edge="1">
          <mxGeometry relative="1" as="geometry" />
        </mxCell>
        <mxCell id="EFu2T0pJuFqWACdUadC3-75" style="edgeStyle=orthogonalEdgeStyle;rounded=0;orthogonalLoop=1;jettySize=auto;html=1;" parent="1" source="EFu2T0pJuFqWACdUadC3-64" target="rVRHQzr7WuVmJmkBRJsp-28" edge="1">
          <mxGeometry relative="1" as="geometry">
            <Array as="points">
              <mxPoint x="930" y="2150" />
            </Array>
          </mxGeometry>
        </mxCell>
        <mxCell id="EFu2T0pJuFqWACdUadC3-78" value="&amp;lt;productDto&amp;gt;&lt;br&gt;productNo&lt;br&gt;productName&lt;br&gt;poroductPrice" style="text;html=1;align=center;verticalAlign=middle;whiteSpace=wrap;rounded=0;fillColor=default;" parent="1" vertex="1">
          <mxGeometry x="555" y="2360" width="80" height="70" as="geometry" />
        </mxCell>
        <mxCell id="EFu2T0pJuFqWACdUadC3-81" value="productNo" style="text;html=1;align=center;verticalAlign=middle;whiteSpace=wrap;rounded=0;fillColor=default;" parent="1" vertex="1">
          <mxGeometry x="890" y="2220" width="80" height="20" as="geometry" />
        </mxCell>
        <mxCell id="EFu2T0pJuFqWACdUadC3-83" value="productNo" style="text;html=1;align=center;verticalAlign=middle;whiteSpace=wrap;rounded=0;fillColor=default;" parent="1" vertex="1">
          <mxGeometry x="710" y="2245" width="80" height="20" as="geometry" />
        </mxCell>
        <mxCell id="EFu2T0pJuFqWACdUadC3-88" style="edgeStyle=orthogonalEdgeStyle;rounded=0;orthogonalLoop=1;jettySize=auto;html=1;entryX=0.5;entryY=0;entryDx=0;entryDy=0;" parent="1" source="EFu2T0pJuFqWACdUadC3-84" target="EFu2T0pJuFqWACdUadC3-65" edge="1">
          <mxGeometry relative="1" as="geometry">
            <Array as="points">
              <mxPoint x="1055" y="1905" />
            </Array>
          </mxGeometry>
        </mxCell>
        <mxCell id="EFu2T0pJuFqWACdUadC3-84" value="&lt;span&gt;상품 등록 처리&lt;/span&gt;&lt;br&gt;&lt;b&gt;/admin/product/add.kh&lt;/b&gt;" style="rounded=1;whiteSpace=wrap;html=1;fillColor=#f8cecc;strokeColor=#b85450;" parent="1" vertex="1">
          <mxGeometry x="852.5" y="1875" width="155" height="60" as="geometry" />
        </mxCell>
        <mxCell id="EFu2T0pJuFqWACdUadC3-85" style="edgeStyle=orthogonalEdgeStyle;rounded=0;orthogonalLoop=1;jettySize=auto;html=1;" parent="1" source="rVRHQzr7WuVmJmkBRJsp-30" target="EFu2T0pJuFqWACdUadC3-84" edge="1">
          <mxGeometry relative="1" as="geometry">
            <Array as="points">
              <mxPoint x="600" y="1905" />
            </Array>
          </mxGeometry>
        </mxCell>
        <mxCell id="EFu2T0pJuFqWACdUadC3-87" value="&amp;lt;productDto&amp;gt;&lt;br&gt;productName&lt;br&gt;poroductPrice" style="text;html=1;align=center;verticalAlign=middle;whiteSpace=wrap;rounded=0;fillColor=default;" parent="1" vertex="1">
          <mxGeometry x="710" y="1860" width="80" height="70" as="geometry" />
        </mxCell>
        <mxCell id="EFu2T0pJuFqWACdUadC3-89" style="edgeStyle=orthogonalEdgeStyle;rounded=0;orthogonalLoop=1;jettySize=auto;html=1;" parent="1" source="rVRHQzr7WuVmJmkBRJsp-57" target="rVRHQzr7WuVmJmkBRJsp-20" edge="1">
          <mxGeometry relative="1" as="geometry" />
        </mxCell>
        <mxCell id="EFu2T0pJuFqWACdUadC3-90" style="edgeStyle=orthogonalEdgeStyle;rounded=0;orthogonalLoop=1;jettySize=auto;html=1;entryX=1;entryY=0.5;entryDx=0;entryDy=0;" parent="1" source="rVRHQzr7WuVmJmkBRJsp-40" target="rVRHQzr7WuVmJmkBRJsp-19" edge="1">
          <mxGeometry relative="1" as="geometry" />
        </mxCell>
        <mxCell id="EFu2T0pJuFqWACdUadC3-91" style="edgeStyle=orthogonalEdgeStyle;rounded=0;orthogonalLoop=1;jettySize=auto;html=1;entryX=1;entryY=0.5;entryDx=0;entryDy=0;" parent="1" source="rVRHQzr7WuVmJmkBRJsp-40" target="rVRHQzr7WuVmJmkBRJsp-57" edge="1">
          <mxGeometry relative="1" as="geometry" />
        </mxCell>
        <mxCell id="EFu2T0pJuFqWACdUadC3-92" style="edgeStyle=orthogonalEdgeStyle;rounded=0;orthogonalLoop=1;jettySize=auto;html=1;entryX=1;entryY=0.5;entryDx=0;entryDy=0;" parent="1" source="rVRHQzr7WuVmJmkBRJsp-7" target="rVRHQzr7WuVmJmkBRJsp-13" edge="1">
          <mxGeometry relative="1" as="geometry" />
        </mxCell>
        <mxCell id="EFu2T0pJuFqWACdUadC3-93" value="&lt;font size=&quot;1&quot;&gt;&lt;b&gt;&lt;i style=&quot;font-size: 20px&quot;&gt;상품페이지&lt;/i&gt;&lt;/b&gt;&lt;/font&gt;" style="text;html=1;strokeColor=none;fillColor=none;align=center;verticalAlign=middle;whiteSpace=wrap;rounded=0;" parent="1" vertex="1">
          <mxGeometry x="1890" y="1010" width="110" height="40" as="geometry" />
        </mxCell>
        <mxCell id="EFu2T0pJuFqWACdUadC3-94" value="&lt;font size=&quot;1&quot;&gt;&lt;b&gt;&lt;i style=&quot;font-size: 20px&quot;&gt;관리자 상품 페이지&lt;/i&gt;&lt;/b&gt;&lt;/font&gt;" style="text;html=1;strokeColor=none;fillColor=none;align=center;verticalAlign=middle;whiteSpace=wrap;rounded=0;" parent="1" vertex="1">
          <mxGeometry x="1200" y="1850" width="180" height="50" as="geometry" />
        </mxCell>
        <mxCell id="EFu2T0pJuFqWACdUadC3-97" style="edgeStyle=orthogonalEdgeStyle;rounded=0;orthogonalLoop=1;jettySize=auto;html=1;" parent="1" source="rVRHQzr7WuVmJmkBRJsp-40" target="EFu2T0pJuFqWACdUadC3-95" edge="1">
          <mxGeometry relative="1" as="geometry">
            <Array as="points">
              <mxPoint x="1560" y="1210" />
            </Array>
          </mxGeometry>
        </mxCell>
        <mxCell id="EFu2T0pJuFqWACdUadC3-98" value="?????" style="text;html=1;align=center;verticalAlign=middle;whiteSpace=wrap;rounded=0;fillColor=default;" parent="1" vertex="1">
          <mxGeometry x="1540" y="1040" width="50" height="20" as="geometry" />
        </mxCell>
        <mxCell id="EFu2T0pJuFqWACdUadC3-101" value="구매내역 번호?" style="text;html=1;align=center;verticalAlign=middle;whiteSpace=wrap;rounded=0;fillColor=default;" parent="1" vertex="1">
          <mxGeometry x="890" y="1550" width="90" height="20" as="geometry" />
        </mxCell>
        <mxCell id="EFu2T0pJuFqWACdUadC3-105" value="마이페이지/&lt;br&gt;구매내역 or 결제내역" style="rounded=0;whiteSpace=wrap;html=1;fillColor=default;gradientColor=none;opacity=70;" parent="1" vertex="1">
          <mxGeometry x="1010" y="1530" width="120" height="60" as="geometry" />
        </mxCell>
        <mxCell id="EFu2T0pJuFqWACdUadC3-107" value="대분류 번호" style="text;html=1;align=center;verticalAlign=middle;whiteSpace=wrap;rounded=0;fillColor=default;" parent="1" vertex="1">
          <mxGeometry x="1840" y="1100" width="70" height="20" as="geometry" />
        </mxCell>
        <mxCell id="EFu2T0pJuFqWACdUadC3-108" value="소분류 번호" style="text;html=1;align=center;verticalAlign=middle;whiteSpace=wrap;rounded=0;fillColor=default;" parent="1" vertex="1">
          <mxGeometry x="1530" y="1220" width="70" height="20" as="geometry" />
        </mxCell>
        <mxCell id="U6f2KQfMnRt7XZP1r48C-1" value="" style="edgeStyle=orthogonalEdgeStyle;rounded=0;orthogonalLoop=1;jettySize=auto;html=1;" parent="1" target="U6f2KQfMnRt7XZP1r48C-5" edge="1">
          <mxGeometry relative="1" as="geometry">
            <mxPoint x="1730" y="1740" as="sourcePoint" />
          </mxGeometry>
        </mxCell>
        <mxCell id="U6f2KQfMnRt7XZP1r48C-2" value="회원가입&lt;br&gt;/member/join" style="rounded=0;whiteSpace=wrap;html=1;" parent="1" vertex="1">
          <mxGeometry x="1670" y="1720" width="120" height="60" as="geometry" />
        </mxCell>
        <mxCell id="U6f2KQfMnRt7XZP1r48C-3" value="" style="edgeStyle=orthogonalEdgeStyle;rounded=0;orthogonalLoop=1;jettySize=auto;html=1;" parent="1" source="U6f2KQfMnRt7XZP1r48C-5" target="U6f2KQfMnRt7XZP1r48C-7" edge="1">
          <mxGeometry relative="1" as="geometry" />
        </mxCell>
        <mxCell id="U6f2KQfMnRt7XZP1r48C-4" value="" style="edgeStyle=orthogonalEdgeStyle;rounded=0;orthogonalLoop=1;jettySize=auto;html=1;" parent="1" source="U6f2KQfMnRt7XZP1r48C-5" target="U6f2KQfMnRt7XZP1r48C-11" edge="1">
          <mxGeometry relative="1" as="geometry" />
        </mxCell>
        <mxCell id="U6f2KQfMnRt7XZP1r48C-5" value="정보입력" style="rounded=0;whiteSpace=wrap;html=1;" parent="1" vertex="1">
          <mxGeometry x="1670" y="1840" width="120" height="60" as="geometry" />
        </mxCell>
        <mxCell id="U6f2KQfMnRt7XZP1r48C-6" style="edgeStyle=orthogonalEdgeStyle;rounded=0;orthogonalLoop=1;jettySize=auto;html=1;exitX=1;exitY=0.25;exitDx=0;exitDy=0;entryX=1;entryY=0.5;entryDx=0;entryDy=0;" parent="1" source="U6f2KQfMnRt7XZP1r48C-7" target="U6f2KQfMnRt7XZP1r48C-9" edge="1">
          <mxGeometry relative="1" as="geometry">
            <Array as="points">
              <mxPoint x="1790" y="1990" />
              <mxPoint x="1990" y="1990" />
              <mxPoint x="1990" y="1630" />
            </Array>
          </mxGeometry>
        </mxCell>
        <mxCell id="U6f2KQfMnRt7XZP1r48C-7" value="회원가입 성공&lt;br&gt;/member/join_success" style="rounded=0;whiteSpace=wrap;html=1;" parent="1" vertex="1">
          <mxGeometry x="1670" y="1960" width="120" height="60" as="geometry" />
        </mxCell>
        <mxCell id="U6f2KQfMnRt7XZP1r48C-8" value="" style="edgeStyle=orthogonalEdgeStyle;rounded=0;orthogonalLoop=1;jettySize=auto;html=1;" parent="1" source="U6f2KQfMnRt7XZP1r48C-9" target="U6f2KQfMnRt7XZP1r48C-2" edge="1">
          <mxGeometry relative="1" as="geometry" />
        </mxCell>
        <mxCell id="U6f2KQfMnRt7XZP1r48C-9" value="메인페이지" style="rounded=0;whiteSpace=wrap;html=1;" parent="1" vertex="1">
          <mxGeometry x="1670" y="1600" width="120" height="60" as="geometry" />
        </mxCell>
        <mxCell id="U6f2KQfMnRt7XZP1r48C-10" style="edgeStyle=orthogonalEdgeStyle;rounded=0;orthogonalLoop=1;jettySize=auto;html=1;exitX=0.25;exitY=0;exitDx=0;exitDy=0;entryX=1;entryY=0.5;entryDx=0;entryDy=0;" parent="1" source="U6f2KQfMnRt7XZP1r48C-11" target="U6f2KQfMnRt7XZP1r48C-2" edge="1">
          <mxGeometry relative="1" as="geometry" />
        </mxCell>
        <mxCell id="U6f2KQfMnRt7XZP1r48C-11" value="회원가입 실패&lt;br&gt;/member/join_fail" style="rounded=0;whiteSpace=wrap;html=1;" parent="1" vertex="1">
          <mxGeometry x="1830" y="1840" width="120" height="60" as="geometry" />
        </mxCell>
        <mxCell id="U6f2KQfMnRt7XZP1r48C-12" value="로그인" style="rounded=0;whiteSpace=wrap;html=1;" parent="1" vertex="1">
          <mxGeometry x="2120" y="1730" width="120" height="60" as="geometry" />
        </mxCell>
        <mxCell id="U6f2KQfMnRt7XZP1r48C-13" value="마이페이지" style="rounded=0;whiteSpace=wrap;html=1;" parent="1" vertex="1">
          <mxGeometry x="2120" y="1820" width="120" height="60" as="geometry" />
        </mxCell>
        <mxCell id="U6f2KQfMnRt7XZP1r48C-15" value="&lt;span style=&quot;font-size: 20px&quot;&gt;&lt;b&gt;&lt;i&gt;회원페이지&lt;br&gt;&lt;/i&gt;&lt;/b&gt;&lt;/span&gt;" style="text;html=1;strokeColor=none;fillColor=none;align=center;verticalAlign=middle;whiteSpace=wrap;rounded=0;" parent="1" vertex="1">
          <mxGeometry x="2180" y="1610" width="110" height="40" as="geometry" />
        </mxCell>
        <mxCell id="5axvOgD40YXNxJrGcV0U-1" value="테스트&lt;br&gt;" style="rounded=0;whiteSpace=wrap;html=1;" vertex="1" parent="1">
          <mxGeometry x="540" y="880" width="120" height="60" as="geometry" />
        </mxCell>
      </root>
    </mxGraphModel>
  </diagram>
  <diagram id="UC7_54upj7405RbHU-sH" name="Page-2">
    <mxGraphModel dx="1662" dy="705" grid="1" gridSize="10" guides="1" tooltips="1" connect="1" arrows="1" fold="1" page="1" pageScale="1" pageWidth="827" pageHeight="1169" math="0" shadow="0">
      <root>
        <mxCell id="wm92rD9OxJsxmftkp2A6-0" />
        <mxCell id="wm92rD9OxJsxmftkp2A6-1" parent="wm92rD9OxJsxmftkp2A6-0" />
      </root>
    </mxGraphModel>
  </diagram>
</mxfile>
